# xmcd
#
# Track frame offsets: 
#        183
#        15758
#        29965
#        44150
#        59158
#        75315
#        91270
#        104710
#        125103
#        138140
#        154613
#        167863
#        182830
#        198765
#        212748
#        226388
#
# Disc length: 3204 seconds
#
# Revision: 2
# Processed by: cddbd v1.5.2PL0 Copyright (c) Steve Scherf et al.
# Submitted via: ExactAudioCopyFreeDBPlugin 1.0
#
DISCID=df0c8210
DTITLE=Truck Stop - Alles Bingo
DYEAR=1991
DGENRE=Country
TTITLE0=Alles Bingo
TTITLE1=Charly's Boss
TTITLE2=Manana
TTITLE3=Telegramm aus Texas
TTITLE4=Wenn du nur willst
TTITLE5=Es muss gehen
TTITLE6=Oh Winnetou, oh Winnetou
TTITLE7=Der Fan-Anruf
TTITLE8=Country Fans
TTITLE9=Ball der einsamen Herzen
TTITLE10=Wer ist der Kerl
TTITLE11=Endlich Heim nach Hamburg
TTITLE12=Wie schön wenn so ein Wunder...
TTITLE13=Kleine Mädchen
TTITLE14=Willst Du 'nen alten Freund behalten
TTITLE15=Hallo Freunde
EXTD=
EXTT0=
EXTT1=
EXTT2=
EXTT3=
EXTT4=
EXTT5=
EXTT6=
EXTT7=
EXTT8=
EXTT9=
EXTT10=
EXTT11=
EXTT12=
EXTT13=
EXTT14=
EXTT15=
PLAYORDER=
